<?xml version="1.0" encoding="utf-8"?>
<!-- Generator: Adobe Illustrator 22.0.1, SVG Export Plug-In . SVG Version: 6.00 Build 0)  -->
<svg version="1.1" id="Layer_1" xmlns="http://www.w3.org/2000/svg" xmlns:xlink="http://www.w3.org/1999/xlink" x="0px" y="0px"
	 viewBox="0 0 459.1 210.6" style="enable-background:new 0 0 459.1 210.6;" xml:space="preserve">
<g>
	<g>
		<path d="M36.2,30.9c-2.4-7.3-7.6-13.1-12-19.2c-1.9-2.6-6.2-0.1-4.3,2.5c4.1,5.7,9.3,11.2,11.5,18C32.3,35.3,37.2,34,36.2,30.9
			L36.2,30.9z"/>
	</g>
</g>
<g>
	<g>
		<path d="M24.1,32.6c0.1,0.4,0.1,0.3-0.2-0.3c-0.1-0.2-0.2-0.4-0.3-0.6c-0.3-0.6-0.8-1.2-1.2-1.7c-1-1-2.2-1.8-3.4-2.4
			c-2.6-1.4-5.6-2.2-8.6-2c-3.2,0.2-3.2,5.2,0,5c2.6-0.2,5.5,0.7,7.7,2.3c1.9,1.4,2.1,4.1,4.8,4.5C25.9,37.9,27.3,33.1,24.1,32.6
			L24.1,32.6z"/>
	</g>
</g>
<g>
	<g>
		<path d="M50.1,24.7c-0.1-2.8-0.4-5.5-0.7-8.3c-0.1-1.3-1-2.5-2.5-2.5c-1.2,0-2.6,1.1-2.5,2.5c0.3,2.8,0.6,5.5,0.7,8.3
			C45.1,27.9,50.1,27.9,50.1,24.7L50.1,24.7z"/>
	</g>
</g>
<g>
	<g>
		<path d="M28.2,47c-1.2,0-2.2-1.2-3.3-1.7c-1.8-0.8-3.8-0.9-5.7-1.7c-2.6-1.1-4.8-2.4-7.7-1.9c-0.8,0.1-1.6,1-1.7,1.7
			c-0.9,4.3,2.7,5.8,4.3,9.3c1.2,2.5-0.2,6.1-2.1,8.3c-1.4,1.6-2.8,1.7-3.5,3.9C8,66.5,9.3,68,10.9,68.1c2.4,0.1,4.9,0,7.2-0.4
			c3-0.6,2.8-1,2.7,2c-0.1,3,0.8,7.2,2.4,9.7c0.7,1.1,2.3,1.7,3.4,0.9c4.2-3.1,3.1-9.3,6.3-12.8c4-4.4,10.9,0.2,15.7-1.9
			c3.4-1.5,2.6-4.3,0.8-6.8c-2.7-3.9-6.2-6.1-10.9-6.8c0.6,0.8,1.2,1.6,1.8,2.4C40.1,51,48,41.2,40.9,39.6c-2.1-0.5-5.9,1-8,1.5
			c-3,0.8-6.2,1.7-8.5,3.9c-2.4,2.2,1.2,5.7,3.5,3.5c1.6-1.5,4.3-2.1,6.3-2.6c1.1-0.3,2.2-0.5,3.2-0.7c0.5-0.1,1.1-0.2,1.6-0.3
			c1.2-0.3,1.2-0.4,0.2-0.3c-0.6-0.2-1,0-1.1,0.7c-0.2,0.4-0.5,0.9-0.7,1.3c-0.4,0.8-0.9,1.6-1.2,2.4c-0.7,1.8-1.1,3.4-0.8,5.4
			c0.1,1,0.7,2.3,1.8,2.4c2.5,0.3,4.7,1,6.5,2.9c0.5,0.5,0.8,1,1.3,1.5c0.3,0.3,0.5,0.7,0.8,1c0.4,0.7,0.4,0.6,0.2-0.3
			c0.1-0.9-0.2-1.1-1.2-0.8c-0.4,0-0.7,0-1.1,0c-0.6,0-1.2-0.1-1.8-0.1c-2-0.1-4.1-0.3-6-0.2c-3.3,0.2-5.5,1.4-7.2,4.3
			c-0.9,1.6-1.4,3.3-2,4.9c-0.5,1.3-1.3,5.2-2.5,6.1c1.1,0.3,2.3,0.6,3.4,0.9c-0.6-1-1.4-5-1.6-6.2c-0.3-2.2,0.7-4.4-0.6-6.5
			c-0.9-1.4-2.6-2.1-4.2-2.1c-3.4-0.1-6.8,1.2-10.3,1.1c0.8,1.1,1.6,2.1,2.4,3.2c-0.2,0.5,2.6-2,3-2.7c1.4-2.1,3.2-5.1,3.7-7.5
			c0.4-2.1-0.2-3.7-1.4-5.5c-0.7-1.1-4.3-4.4-4-5.7c-0.6,0.6-1.2,1.2-1.7,1.7c2.2-0.4,5.2,2.3,7.5,2.8c2.8,0.7,5,2.6,7.9,2.6
			C31.5,52.1,31.5,47.1,28.2,47L28.2,47z"/>
	</g>
</g>
<g>
	<g>
		<path d="M33.1,91.8c-4.6,0-9.1,0-13.7,0c-3.5,0-6.6,0.1-9.7,1.7c-2.8,1.5-0.3,5.8,2.5,4.3c3-1.6,6.9-1,10.2-1c3.5,0,7.1,0,10.6,0
			C36.3,96.8,36.3,91.8,33.1,91.8L33.1,91.8z"/>
	</g>
</g>
<g>
	<g>
		<path d="M26.9,105.6c-2.3,0-4.7-0.1-6.9,0.6c-2.1,0.6-4,2-6.2,2.2c-3.2,0.3-3.2,5.3,0,5c2.1-0.2,3.8-0.9,5.7-1.7
			c2.5-1,4.7-1.1,7.4-1.1C30.1,110.6,30.1,105.6,26.9,105.6L26.9,105.6z"/>
	</g>
</g>
<g>
	<g>
		<path d="M29,134.9c-3.5,2.5-6.9,4.1-10.9,5.6c-1.2,0.4-5.9,3.2-6.7,2.4c-2.4-2.2-5.9,1.3-3.5,3.5c2.8,2.6,6.5,1.1,9.6-0.2
			c5-2.1,9.6-3.8,14.2-7C34.2,137.4,31.7,133.1,29,134.9L29,134.9z"/>
	</g>
</g>
<g>
	<g>
		<path d="M27.6,145.6c-3.4,0.4-5.3,2.4-7.5,4.8c-2.5,2.8-5.9,4.5-8.7,7c-2.4,2.2,1.2,5.7,3.5,3.5c2.3-2.1,5-3.5,7.3-5.5
			c1.5-1.4,3.2-4.6,5.4-4.8C30.7,150.3,30.7,145.3,27.6,145.6L27.6,145.6z"/>
	</g>
</g>
<g>
	<g>
		<path d="M35,180.9c-3.2,2.7-5.4,5.4-8.1,8.6c-2.2,2.6-7.2,6.7-10.8,6.5c-3.2-0.1-3.2,4.9,0,5c4,0.2,8.3-2.8,11.4-5.2
			c2-1.6,3.5-3.6,5.1-5.6c1.8-2.3,3.7-3.9,6-5.8C41,182.4,37.5,178.8,35,180.9L35,180.9z"/>
	</g>
</g>
<g>
	<g>
		<path d="M26.7,173.1c-2.4-1.5-5.3-0.1-7.6,0.9c-3.1,1.2-6.4,2-9.2,4c-2.6,1.9,0.8,5.5,3.4,3.6c2-1.5,4.6-1.8,6.9-2.7
			c0.6-0.2,1.3-0.5,1.9-0.7c0.4-0.1,0.9-0.3,1.4-0.5c0.3-0.1,1.1,0,0.6-0.3C26.8,179,29.4,174.8,26.7,173.1L26.7,173.1z"/>
	</g>
</g>
<g>
	<g>
		<path d="M64.5,33.7c-0.1,0.3-0.2,0.6-0.3,0.9c1.4-0.4,2.8-0.7,4.2-1.1c-1.2-1-1.6-2.8-1.8-4.2c-0.1-0.7-0.6-2.5-0.2-3
			c0.6-0.8,1.4,0.5,2.2,1.4c2.5,2.6,4,5.6,7.5,7c1.2,0.5,2.8-0.6,3.1-1.7c1.3-5.2-3.3-11.8,0.7-16.6c1.7-2.1,2.3-0.6,3.9,1
			c1.3,1.3,2.6,2.5,3.7,3.9c2.1,2.5,3.4,5.2,6,7.2c2.5,2,6-1.5,3.5-3.5c-4.5-3.6-10.7-17.9-18.1-14.4c-3.2,1.5-4.8,5.7-5.3,9
			c-0.6,3.9,1.7,8.5,0.8,12.1c1-0.6,2.1-1.2,3.1-1.7c-3.8-1.5-9.3-14.8-14.8-7.8c-2.8,3.6-1.2,12.1,2.3,14.9
			c1.5,1.2,3.5,0.8,4.2-1.1c0.1-0.3,0.2-0.6,0.3-0.9C70.3,32,65.5,30.6,64.5,33.7L64.5,33.7z"/>
	</g>
</g>
<g>
	<g>
		<path d="M113.5,24c0-3.7-1.4-7.3-1.4-11c0-3.2-5-3.2-5,0c0,3.7,1.4,7.3,1.4,11C108.5,27.2,113.5,27.2,113.5,24L113.5,24z"/>
	</g>
</g>
<g>
	<g>
		<path d="M128,25.4c-0.1-3.1-0.5-5.8,1.8-8.2c2.4-2.6,5.6-4.3,9.3-3.4c2.8,0.7,4.2,2.6,3.9,5.6c-0.3,3.3-1.4,0.5-0.7-0.1
			c1.1-1,3.5-1.3,4.9-1.5c5.2-0.7,10.1-0.4,15.1,1.1c3.4,1,8.8,3.4,12.2,2c3-1.1,1.7-6-1.3-4.8c-2,0.7-7.6-1.5-9.6-2
			c-2.5-0.8-4.7-1.5-7.4-1.6c-5.3-0.2-11.8-0.4-16.5,2.5c-3.4,2.1-5.2,5.3-3,9.1c1.8,3,5.5,4.2,8.3,1.9c6.5-5.1,2.3-15.2-4.7-16.9
			c-4.8-1.2-9.7,0.3-13.2,3.7c-4,3.9-4.3,7.3-4.1,12.7C123.1,28.6,128.1,28.6,128,25.4L128,25.4z"/>
	</g>
</g>
<g>
	<g>
		<path d="M208.6,26.1c-0.3-2.2-0.9-4.4-1.7-6.6c-0.6-1.7-1.7-3.4-1.6-5.2c0.2-3.2-4.8-3.2-5,0c-0.1,2.2,0.8,4,1.6,5.9
			c0.9,2.3,1.6,4.7,2,7.1C204.2,30.6,209,29.2,208.6,26.1L208.6,26.1z"/>
	</g>
</g>
<g>
	<g>
		<path d="M225.8,32.9c1.5-6.2,2.9-12.9,3.5-19.3c0.3-3.2-4.7-3.2-5,0c-0.6,5.9-2,12.1-3.4,18C220.3,34.7,225.1,36.1,225.8,32.9
			L225.8,32.9z"/>
	</g>
</g>
<g>
	<g>
		<path d="M258.3,31.6c0-1.2-1.1-10.1-0.8-10.3c1-0.7,5.1,4.7,6.6,5.7c1.7,1.1,3.6-0.4,3.8-2.2c0.2-2.2-0.8-6.1,0-8
			c-0.3-0.9-0.1-1.3,0.8-1.1c0.8-0.3,1.3,0,1.7,0.8c0.5,0.5,0.8,1.4,1.1,2c1.4,2.6,2.4,5.3,5.1,6.9c1.2,0.7,2.6,0.2,3.4-0.9
			c1.2-1.8,0.8-3.4,1.3-5.5c0.1-0.4,1.9-6,1.8-6c0.8-0.1,1.1,7.9,1.2,8.9c0.2,1.3,1,2.6,2.5,2.5c2.8-0.1,4.7-2,6.4-4.1
			c1.1-1.5,1.8-2.7,3.8-0.8c2.1,2,1.2,6.8,1.1,9.4c-0.1,3.2,4.9,3.2,5,0c0.2-5.3,0.3-13.6-6-16c-1.9-0.7-3.7-0.6-5.3,0.7
			c-1.5,1.3-2.7,5.6-5,5.7c0.8,0.8,1.7,1.7,2.5,2.5c-0.5-4.1,0.5-12.3-4.7-13.7c-2.7-0.7-4.7,1.2-5.8,3.3c-0.8,1.5-1.4,3.3-1.9,4.9
			c-0.5,1.5-0.3,4.3-1.2,5.5c1.1-0.3,2.3-0.6,3.4-0.9c-4.4-2.5-3.5-10.1-9.8-10.6c-8.6-0.7-5.9,9.2-6.5,14.4
			c1.3-0.7,2.5-1.4,3.8-2.2c-4.1-2.6-5.3-9-11.7-6.2c-1.8,0.8-2.9,2.1-3,4.1c-0.1,1.3,0.5,2.4,0.7,3.7c0.5,2.5,0.6,4.8,0.6,7.3
			C253.3,34.8,258.3,34.8,258.3,31.6L258.3,31.6z"/>
	</g>
</g>
<g>
	<g>
		<path d="M337.6,22.9c-3.5-3.3-7.2-7.1-3.3-11.9c3.9-4.8,10-2,14,1c3.1,2.3,8.3,9.6,0.6,9.5c-1.1,0-2.1-0.3-3-0.8c0.5-1,1-2,1.5-3
			c1.9-1,5.3,1,6.6,2.1c3.2,2.8,1.8,5.3,3.3,8.4c0.7,1.5,2.2,2.6,4,2.3c1.9-0.3,2.7-2.1,3.6-3.5c2.7-3.9,5.6-8.2,9.4-11.2
			c2.5-1.9,0-6.3-2.5-4.3c-3.2,2.4-5.6,5.4-8,8.6c-0.5,0.7-3.2,3.5-3.1,4.4c0.2,1.7,0.9,0.2,1-1.1c0.4-5.4-7.4-10.2-11.9-10.7
			s-10.1,2.8-9.4,8c0.6,4.6,6.4,6.3,10.3,5.7c5.5-0.8,8.9-5.4,6.8-10.6c-2.2-5.7-8.3-10.5-14.3-11.9c-5.8-1.3-12,1.1-14.6,6.7
			c-3.1,6.8,0.7,11.5,5.4,15.9C336.4,28.7,340,25.1,337.6,22.9L337.6,22.9z"/>
	</g>
</g>
<g>
	<g>
		<path d="M381.4,27.3c3.2-4.6,6.2-9.2,10-13.3c2.1-2.4-1.4-5.9-3.5-3.5c-4,4.4-7.3,9.4-10.7,14.3C375.3,27.5,379.6,30,381.4,27.3
			L381.4,27.3z"/>
	</g>
</g>
<g>
	<g>
		<path d="M390.3,28.6c5.7,0.2,10.2-4.6,14.5-7.8c2.6-1.9,5.3-3.8,8.1-5.4c2.5-1.5,5-1.8,7.6-3c2.9-1.3,0.4-5.7-2.5-4.3
			c-2.1,1-4.2,1-6.2,2.2c-2.3,1.3-4.5,2.8-6.7,4.3c-4,2.7-9.6,9.2-14.7,9.1C387.1,23.5,387.1,28.5,390.3,28.6L390.3,28.6z"/>
	</g>
</g>
<g>
	<g>
		<path d="M417.2,36.1c4.6-0.9,9.4-4,13.2-6.6c4.4-3,9.2-5.9,13.4-9.2c2.5-2-1-5.5-3.5-3.5c-3.8,3.1-8.3,5.6-12.4,8.4
			c-3.5,2.4-7.8,5.3-12.1,6.1C412.7,31.9,414,36.7,417.2,36.1L417.2,36.1z"/>
	</g>
</g>
<g>
	<g>
		<path d="M437.2,47.8c2.8-0.5,7.1-1.4,8.7,1.6c0.1-1,0.3-2,0.4-3c-3.2,2.7-8.5,0.6-11,4.6c-0.7,1.2-0.2,2.7,0.9,3.4
			c3.3,2.3,8.3,0.2,7.8,6.1c-0.4,4.7-5.7,6.3-9.6,7.2c-3.1,0.8-1.8,5.6,1.3,4.8c5.7-1.4,11.8-4.1,13-10.5c0.5-2.8,0.1-6.3-1.8-8.6
			c-2.3-2.9-5.6-1.5-8.3-3.4c0.3,1.1,0.6,2.3,0.9,3.4c0.6-1,4.3-1.1,5.5-1.4c1.8-0.5,3.3-1,4.7-2.2c0.9-0.7,0.9-2.1,0.4-3
			c-2.9-5.3-9.2-4.9-14.4-3.9C432.7,43.6,434,48.4,437.2,47.8L437.2,47.8z"/>
	</g>
</g>
<g>
	<g>
		<path d="M429,110.1c1.9-2.9,1.5-5.9,2.3-9.1c0.3-1.5,1.1-2.8,1.5-4.2c0.2-0.7,0.3-3.2,0.8-3.6c-1-0.1-2-0.3-3-0.4
			c1.5,1.2,2.3,2.9,3.4,4.4c1.3,1.8,2.7,3.4,3.8,5.3c1.6,2.8,6,0.3,4.3-2.5c-1.2-2.1-2.8-3.9-4.2-5.8c-1.3-1.7-2.1-3.5-3.8-4.9
			c-0.8-0.7-2.1-1.1-3-0.4c-2.7,1.9-2.4,4.7-3.4,7.5c-0.6,1.7-1.2,3.1-1.4,4.9c-0.3,2.2-0.2,4.4-1.5,6.4
			C422.9,110.3,427.3,112.8,429,110.1L429,110.1z"/>
	</g>
</g>
<g>
	<g>
		<path d="M426.2,107c-4.5,0.1-12.3,0.7-15.1,4.7c-0.5,0.7-0.4,1.8,0,2.5c1.4,2.2,3,3.1,5.4,4c1.3,0.5,2.8,0.7,4,1.4
			c2.4,1.5,2.2,3.5,2.5,5.9c0.3,2.7,0.5,5.4,0.6,8.1c0.1,1.5,0.3,3.1,1.5,4.2c3.3,2.9,7-1.4,8.8-3.9c0.9-1.3,2-2.6,2.8-3.9
			c0.6-1.1,1.2-3.8,2.1-4.3c0.3-1.3,0.8-1.2,1.4,0.4c0.4,0.2,0.9,0.4,1.3,0.6c1.8,0.9,3.4,1.1,5,2.5c2.4,2.2,5.9-1.4,3.5-3.5
			c-2.7-2.5-9.1-6.1-12.8-5c-1.5,0.4-2,1.4-2.7,2.6c-1.6,2.9-3.6,5.7-5.1,8.6c-0.8,1.4-0.6,2.6-0.8,0.6c-0.1-1.1-0.1-2.3-0.2-3.5
			c-0.3-2.8,0-6.2-1-8.9c-0.7-1.7-1.9-3.1-3.4-4.1c-2.4-1.6-7.1-1.8-8.6-4.3c0,0.8,0,1.7,0,2.5c1.2-1.6,9.1-2.1,10.8-2.2
			C429.4,111.9,429.4,106.9,426.2,107L426.2,107z"/>
	</g>
</g>
<g>
	<g>
		<path d="M441.3,105.7c2.7-0.6,5.5-1.7,8.3-1.3c-0.6-0.6-1.2-1.2-1.7-1.7c0.1,0.5-3.3,3.1-3.8,3.7c-1.2,1.6-2.4,3.7-2.3,5.8
			c0.1,2.4,1.7,4.3,2.6,6.5c0.9,2.4,2.4,4.9,2.9,7.4c0.6,3.2,5.4,1.8,4.8-1.3c-0.4-2.3-1.6-4.2-2.5-6.4c-1-2.4-3.2-5.9-1.9-8.4
			c1.8-3.6,5.7-3.8,5-8.6c-0.1-0.8-1-1.6-1.7-1.7c-3.8-0.6-7.2,0.5-10.9,1.3C436.8,101.6,438.2,106.4,441.3,105.7L441.3,105.7z"/>
	</g>
</g>
<g>
	<g>
		<path d="M418.6,151.3c3.8,0,7.5,0.7,11.3,1.4c2.8,0.5,6.8,0.1,9,2c2.4,2.1,6-1.4,3.5-3.5c-2.9-2.4-6.1-2.5-9.7-3
			c-4.8-0.7-9.3-1.8-14.1-1.8C415.4,146.3,415.4,151.3,418.6,151.3L418.6,151.3z"/>
	</g>
</g>
<g>
	<g>
		<path d="M423.1,166.1c3.3,2.6,7.3,3.6,10.8,5.8c4.2,2.7,7.6,6.7,10.2,10.9c1.6,2.8,6,0.3,4.3-2.5c-2.4-4.1-5.5-7.8-9.3-10.8
			s-8.7-4-12.5-7C424.1,160.6,420.6,164.1,423.1,166.1L423.1,166.1z"/>
	</g>
</g>
<g>
	<g>
		<path d="M64.3,166.1c7.1-3.9,18.8-2.6,22.2,5.7c3.5,8.7-1.8,19.2-11.1,21.2c-3,0.6-7.7,2.2-10.7,1.9c-3.4-0.4-7.5-6.5-9-8.9
			c-1.6-2.6-3.8-10.1-3.1-13.3c1.1-4.7,6.9-6.9,11.1-6.9c3.2,0,3.2-5,0-5c-5.5,0-10.7,2.2-14,6.8c-1.3,1.9-2.5,4.4-2.4,6.7
			c0.1,3.1,1.4,8.2,2.4,11.1c1,2.8,3.1,5.2,4.9,7.4c1.8,2.1,3.7,5.2,6.2,6.4c2,1,4.4,0.8,6.5,0.4c3.2-0.5,6.5-1,9.7-1.8
			c12.2-2.9,18.7-17.2,13.7-28.4c-4.8-10.7-19.5-12.8-29-7.5C59,163.4,61.5,167.7,64.3,166.1L64.3,166.1z"/>
	</g>
</g>
<g>
	<g>
		<path d="M57.6,180.3c3.8-0.1,8-2,11.7-3.1c3.5-1,8.1-3.9,11.7-3.8c3.2,0,3.2-5,0-5c-3.6,0-6.8,2.1-10.2,3.1
			c-1.9,0.6-3.9,1.2-5.8,1.7c-2.1,0.6-5.3,2-7.4,2C54.4,175.3,54.3,180.3,57.6,180.3L57.6,180.3z"/>
	</g>
</g>
<g>
	<g>
		<path d="M56.3,182.7c2.5,1.8,6.8,2.7,9.9,2.3c3.1-0.4,5.3-2.7,5.6-5.8c0.2-2.7-0.9-5.8-4-6.1c-1.7-0.2-2.8,0.9-4.2,1.6
			c-1.4,0.7-2.8,0.8-4.1,1.8c-1.4,1.2-0.7,3.8,1.1,4.2c2.4,0.5,4.8,0.3,7.3,0.2c3.2-0.1,3.2-5.1,0-5c-2,0-4,0.3-6-0.1
			c0.4,1.4,0.7,2.8,1.1,4.2c0.4-0.4,1.6-0.4,2.1-0.6s0.9-0.5,1.4-0.8c0.3-0.2,0.7-0.4,1-0.6c-0.5-0.5-0.8-0.6-0.8-0.2
			c-0.1,0.1,0.1,1.1,0,1.4c-0.9,2.1-6.6,0-7.9-0.9C56.2,176.5,53.7,180.8,56.3,182.7L56.3,182.7z"/>
	</g>
</g>
<g>
	<g>
		<path d="M73,175.4c2,1.9,2.6,4.4,5.7,4.8c2.7,0.3,5-1.6,6.5-3.6c1.5-1.9,2.1-4.8-0.1-6.5c-2-1.4-4.2-0.4-6.2,0.4
			c-1.3,0.5-2.1,1.7-1.7,3.1c0.3,1.2,1.8,2.3,3.1,1.7c0.6-0.2,1.7-0.5,2.2-0.9c0.9-0.1,0.7-0.6-0.8-1.5c-0.1,0.1-0.2,0.3-0.3,0.4
			c-0.4,0.3-0.7,0.7-1,1.1c-0.8,0.7-1.1,1.1-1.8,0.2c-0.7-0.9-1.2-1.9-2.1-2.8C74.2,169.6,70.7,173.2,73,175.4L73,175.4z"/>
	</g>
</g>
<g>
	<g>
		<path d="M68.6,189.9c5,0.1,10.2,0.9,14.2-2.8c2.4-2.2-1.2-5.7-3.5-3.5c-2.7,2.5-7.4,1.4-10.6,1.3
			C65.4,184.9,65.4,189.9,68.6,189.9L68.6,189.9z"/>
	</g>
</g>
<g>
	<g>
		<path d="M109.4,170.2c-1.1,5.3-8.8,24.6,0.1,26.8c3,0.8,6.1-1.4,8.2-3.2c1.7-1.4,3.2-3,4.4-4.8c0.6-0.9,1.8-4.9,2.8-5.2
			c-1-0.6-2.1-1.2-3.1-1.7c1.7,4.5,2.6,8,5.7,11.9c2.5,3,6,6,10.2,5.6c3.5-0.3,6.9-3,8.5-6.1c1.5-3.1,2.4-8.7,1.7-12.2
			c-0.3-1.4-2.4-2.5-3.7-1.5c-3.2,2.4-4,8.5-4.5,12.3c-0.6,4.5,1.7,8.2,6.1,9.4c9.6,2.7,19-8.6,18.7-17.5c-0.1-3.5-2.2-9-6.2-9.6
			s-5.8,3.8-6.2,7c-1.2,8.9,6,19.5,14.8,21.6c11.4,2.7,24.5-2.2,23.9-15.7c-0.1-3.2-5.1-3.2-5,0c0.4,8.5-6.5,11.8-14,11.4
			c-6.7-0.4-13.8-6.2-14.8-13.2c-0.4-2.4,0.5-9,2.3-3.3c1.3,4.2-1.4,9-4.5,11.6c-2.4,2-8.3,5.2-10.2,0.7c-0.2-0.4,1.2-9.8,2.1-10.5
			c-1.2-0.5-2.4-1-3.7-1.5c0.3,1.3-0.5,3.8-0.6,5.2c-0.6,4.6-4,8.6-8.6,5.2c-4.3-3.1-5.4-7.7-7.1-12.3c-0.5-1.2-1.7-2.2-3.1-1.7
			c-2,0.7-2.9,2-3.9,3.8c-1.5,3-2.9,5.5-5.6,7.6c-4.8,3.6-3.4-3.4-2.8-6.4c0.8-4.2,2.1-8.3,2.9-12.5
			C114.9,168.4,110.1,167,109.4,170.2L109.4,170.2z"/>
	</g>
</g>
<g>
	<g>
		<path d="M210.8,182.6c0.1-0.2,0.1-0.3,0.2-0.5c-1.5,0.2-3,0.4-4.6,0.6c2.9,4.9-1.9,12.6,2.3,16.9c2.3,2.3,5.8-1.3,3.5-3.5
			c-0.9-1,0.1-5.9,0.1-7.2c0.1-3-0.1-6-1.6-8.6c-1.1-1.9-4-1.5-4.6,0.6c-0.1,0.2-0.1,0.3-0.2,0.5
			C205.1,184.3,209.9,185.6,210.8,182.6L210.8,182.6z"/>
	</g>
</g>
<g>
	<g>
		<path d="M224.2,174.9c1.8,2.4,1.9,7.2,2.8,10.2c1.2,3.7,2.6,7.4,3,11.3c0.3,3.2,5.3,3.2,5,0c-0.4-4.4-1.9-8.5-3.2-12.7
			c-1.1-3.5-1.2-8.4-3.3-11.3C226.6,169.8,222.3,172.3,224.2,174.9L224.2,174.9z"/>
	</g>
</g>
<g>
	<g>
		<path d="M263.5,176.3c3.5,6.5,1.3,13.9,4.3,20.5c0.5,1,1.8,1.4,2.8,1.1c5.3-1.3,5.9-8.5,8.6-12.3c0.5-0.7-0.4-0.7-0.1,0
			c0.2,0.6,0.3,1.3,0.4,2c0.4,1.6,0.8,3.2,1.4,4.7c1.1,2.8,2.1,6.3,4.4,8.3c1.2,1.1,3,0.9,3.9-0.5c2.3-3.5,2.7-8.9,4.2-12.9
			c0.8-2.2,2.5-10.2,4.9-11.1c-0.8-0.2-1.6-0.4-2.4-0.6c3.3,3.3,4.6,7.7,7.2,11.4c2.3,3.4,5.3,6.1,8.9,8.1c2.8,1.5,5.4-2.8,2.5-4.3
			c-7.8-4.3-9.2-12.8-15.1-18.7c-0.6-0.6-1.6-0.9-2.4-0.6c-3.9,1.5-5.2,5.9-6.5,9.5c-1,2.8-2.1,5.6-3,8.4c-0.9,2.6-1,6.1-2.5,8.4
			c1.3-0.2,2.6-0.3,3.9-0.5c-2.8-2.5-3.8-7.8-4.6-11.3c-0.5-2.5-1.4-6-4.4-6.3c-2.8-0.3-4.4,2.4-5.4,4.5c-1,1.9-2.9,8.5-5.1,9
			c0.9,0.4,1.9,0.8,2.8,1.1c-1.6-3.6-0.9-7.7-1.3-11.6c-0.4-3.2-1.4-6.1-2.9-9C266.3,170.9,261.9,173.4,263.5,176.3L263.5,176.3z"/>
	</g>
</g>
<g>
	<g>
		<path d="M326.4,179.2c1.7,0.8,2.6,2.7,3.3,4.4c0.5,1.1,0.8,2.3,1.2,3.5c0.4,1.2,1.2,2.4,1.2,3.7c0.1,3.2,5.1,3.2,5,0
			s-1.8-6.8-3-9.7c-1.1-2.5-2.6-5.1-5.1-6.3C326.1,173.6,323.5,177.9,326.4,179.2L326.4,179.2z"/>
	</g>
</g>
<g>
	<g>
		<path d="M418.2,174.4c2.5,1.4,3.9,6.8,5,9.2c1.3,2.8,3.1,6.2,3.4,9.4c0.4-0.7,0.8-1.4,1.2-2.2c-5.3,3.3-13.1-13.4-18.5-5
			c-1.9,2.9,0.7,8-1.3,10.3c-1.7,1.9-5.9-0.7-7.6-2.2c-2.2-1.9-3.9-5.1-4.1-7.9c-0.3-3.2-5.3-3.2-5,0c0.4,5.5,3.6,10.9,8.5,13.6
			c3.8,2.1,10.5,4.4,13.2-0.6c1.1-2.1,0.5-4.7,0.4-7c-0.2-4.4,1.9-2,4.2-0.2c3.7,2.9,8,6.2,12.7,3.3c0.7-0.4,1.3-1.3,1.2-2.2
			c-0.3-4.2-2.4-8.2-4.1-11.9c-1.7-3.8-3-8.8-6.8-11C417.9,168.5,415.4,172.8,418.2,174.4L418.2,174.4z"/>
	</g>
</g>
<g>
	<g>
		<path d="M379.7,179.8c0.4,3.1,1.3,6.1,1.4,9.3c0.1,1.8-0.1,3.5,0,5.3c0,0.7,0.5,2.4,0,3c-2,2.5,1.6,6.1,3.5,3.5
			c1.9-2.5,1.4-5,1.4-8c0-4.6-0.8-8.5-1.4-13C384.3,176.7,379.3,176.6,379.7,179.8L379.7,179.8z"/>
	</g>
</g>
<g>
	<g>
		<path d="M365.2,184.7c0,2.7,0.5,5.2,0.9,7.8c0.3,2.1,0.4,4.1,1.9,5.7c2.2,2.4,5.7-1.2,3.5-3.5c-0.7-0.7-0.5-2.9-0.7-3.8
			c-0.4-2.1-0.6-4-0.6-6.1C370.2,181.4,365.2,181.4,365.2,184.7L365.2,184.7z"/>
	</g>
</g>
<g>
	<g>
		<path d="M352.1,178.4c0,6.4,0.6,12.9,0.7,19.3c0,3.2,5,3.2,5,0c-0.1-6.4-0.6-12.9-0.7-19.3C357.1,175.2,352.1,175.2,352.1,178.4
			L352.1,178.4z"/>
	</g>
</g>
</svg>
